<?xml version="1.0" encoding="UTF-8" standalone="no"?>
<!DOCTYPE svg PUBLIC "-//W3C//DTD SVG 1.1//EN"
 "http://www.w3.org/Graphics/SVG/1.1/DTD/svg11.dtd">
<!-- Generated by graphviz version 2.43.0 (0)
 -->
<!-- Title: %3 Pages: 1 -->
<svg width="1644pt" height="500pt"
 viewBox="0.00 0.00 1644.05 500.00" xmlns="http://www.w3.org/2000/svg" xmlns:xlink="http://www.w3.org/1999/xlink">
<g id="graph0" class="graph" transform="scale(1 1) rotate(0) translate(4 496)">
<title>%3</title>
<polygon fill="white" stroke="transparent" points="-4,4 -4,-496 1640.05,-496 1640.05,4 -4,4"/>
<!-- root -->
<g id="node1" class="node">
<title>root</title>
<ellipse fill="none" stroke="black" cx="771.67" cy="-474" rx="29.8" ry="18"/>
<text text-anchor="middle" x="771.67" y="-470.3" font-family="Times,serif" font-size="14.00">root</text>
</g>
<!-- [1369765861, &quot;is_of_arity_1&quot;] -->
<g id="node4" class="node">
<title>[1369765861, &quot;is_of_arity_1&quot;]</title>
<ellipse fill="none" stroke="black" cx="771.67" cy="-387" rx="148.37" ry="18"/>
<text text-anchor="middle" x="771.67" y="-383.3" font-family="Times,serif" font-size="14.00">[1369765861, &quot;is_of_arity_1&quot;]</text>
</g>
<!-- root&#45;&gt;[1369765861, &quot;is_of_arity_1&quot;] -->
<g id="edge1" class="edge">
<title>root&#45;&gt;[1369765861, &quot;is_of_arity_1&quot;]</title>
<path fill="none" stroke="black" d="M771.67,-455.8C771.67,-444.16 771.67,-428.55 771.67,-415.24"/>
<polygon fill="black" stroke="black" points="775.17,-415.18 771.67,-405.18 768.17,-415.18 775.17,-415.18"/>
<text text-anchor="middle" x="847.17" y="-426.8" font-family="Times,serif" font-size="14.00">{:root, 1369765861}</text>
</g>
<!-- [1036416829, &quot;name&#45;1036416829&quot;, :&quot;&#45;expr/5&#45;fun&#45;4&#45;&quot;] -->
<g id="node2" class="node">
<title>[1036416829, &quot;name&#45;1036416829&quot;, :&quot;&#45;expr/5&#45;fun&#45;4&#45;&quot;]</title>
<ellipse fill="none" stroke="black" cx="1378.67" cy="-192" rx="257.25" ry="18"/>
<text text-anchor="middle" x="1378.67" y="-188.3" font-family="Times,serif" font-size="14.00">[1036416829, &quot;name&#45;1036416829&quot;, :&quot;&#45;expr/5&#45;fun&#45;4&#45;&quot;]</text>
</g>
<!-- 1290434574 -->
<g id="node3" class="node">
<title>1290434574</title>
<ellipse fill="none" stroke="black" cx="656.67" cy="-300" rx="69.59" ry="18"/>
<text text-anchor="middle" x="656.67" y="-296.3" font-family="Times,serif" font-size="14.00">1290434574</text>
</g>
<!-- [3944163576, &quot;conjunction : 4116760673 AND 1290434574&quot;] -->
<g id="node8" class="node">
<title>[3944163576, &quot;conjunction : 4116760673 AND 1290434574&quot;]</title>
<ellipse fill="none" stroke="black" cx="805.67" cy="-192" rx="297.85" ry="18"/>
<text text-anchor="middle" x="805.67" y="-188.3" font-family="Times,serif" font-size="14.00">[3944163576, &quot;conjunction : 4116760673 AND 1290434574&quot;]</text>
</g>
<!-- 1290434574&#45;&gt;[3944163576, &quot;conjunction : 4116760673 AND 1290434574&quot;] -->
<g id="edge2" class="edge">
<title>1290434574&#45;&gt;[3944163576, &quot;conjunction : 4116760673 AND 1290434574&quot;]</title>
<path fill="none" stroke="black" d="M650.17,-281.86C645.42,-266.13 641.69,-243.06 653.67,-228 658.9,-221.44 670.49,-216 685.06,-211.53"/>
<polygon fill="black" stroke="black" points="686.35,-214.81 695.03,-208.73 684.46,-208.07 686.35,-214.81"/>
<text text-anchor="middle" x="757.67" y="-242.3" font-family="Times,serif" font-size="14.00">{1290434574, 3944163576}</text>
</g>
<!-- [1369765861, &quot;is_of_arity_1&quot;]&#45;&gt;1290434574 -->
<g id="edge3" class="edge">
<title>[1369765861, &quot;is_of_arity_1&quot;]&#45;&gt;1290434574</title>
<path fill="none" stroke="black" d="M684.72,-372.37C674.21,-367.26 664.72,-360.34 657.67,-351 652.87,-344.64 651.39,-336.41 651.45,-328.48"/>
<polygon fill="black" stroke="black" points="654.95,-328.64 652.29,-318.39 647.98,-328.07 654.95,-328.64"/>
<text text-anchor="middle" x="761.67" y="-339.8" font-family="Times,serif" font-size="14.00">{1369765861, 1290434574}</text>
</g>
<!-- 1716921316 -->
<g id="node5" class="node">
<title>1716921316</title>
<ellipse fill="none" stroke="black" cx="296.67" cy="-246" rx="69.59" ry="18"/>
<text text-anchor="middle" x="296.67" y="-242.3" font-family="Times,serif" font-size="14.00">1716921316</text>
</g>
<!-- [1369765861, &quot;is_of_arity_1&quot;]&#45;&gt;1716921316 -->
<g id="edge4" class="edge">
<title>[1369765861, &quot;is_of_arity_1&quot;]&#45;&gt;1716921316</title>
<path fill="none" stroke="black" d="M639,-378.91C563.18,-373.51 476.29,-364.63 440.67,-351 393.49,-332.95 347.72,-295.41 320.88,-270.72"/>
<polygon fill="black" stroke="black" points="323.2,-268.09 313.5,-263.81 318.41,-273.2 323.2,-268.09"/>
<text text-anchor="middle" x="544.67" y="-339.8" font-family="Times,serif" font-size="14.00">{1369765861, 1716921316}</text>
</g>
<!-- 4116760673 -->
<g id="node9" class="node">
<title>4116760673</title>
<ellipse fill="none" stroke="black" cx="887.67" cy="-300" rx="69.59" ry="18"/>
<text text-anchor="middle" x="887.67" y="-296.3" font-family="Times,serif" font-size="14.00">4116760673</text>
</g>
<!-- [1369765861, &quot;is_of_arity_1&quot;]&#45;&gt;4116760673 -->
<g id="edge5" class="edge">
<title>[1369765861, &quot;is_of_arity_1&quot;]&#45;&gt;4116760673</title>
<path fill="none" stroke="black" d="M834.39,-370.67C845.76,-365.77 856.81,-359.37 865.67,-351 872.32,-344.73 877.08,-336.1 880.43,-327.78"/>
<polygon fill="black" stroke="black" points="883.74,-328.9 883.74,-318.3 877.14,-326.58 883.74,-328.9"/>
<text text-anchor="middle" x="980.67" y="-339.8" font-family="Times,serif" font-size="14.00">{1369765861, 4116760673}</text>
</g>
<!-- [4237012356, :&quot;&#45;expr/5&#45;fun&#45;4&#45;&quot;] -->
<g id="node10" class="node">
<title>[4237012356, :&quot;&#45;expr/5&#45;fun&#45;4&#45;&quot;]</title>
<ellipse fill="none" stroke="black" cx="1295.67" cy="-300" rx="155.97" ry="18"/>
<text text-anchor="middle" x="1295.67" y="-296.3" font-family="Times,serif" font-size="14.00">[4237012356, :&quot;&#45;expr/5&#45;fun&#45;4&#45;&quot;]</text>
</g>
<!-- [1369765861, &quot;is_of_arity_1&quot;]&#45;&gt;[4237012356, :&quot;&#45;expr/5&#45;fun&#45;4&#45;&quot;] -->
<g id="edge6" class="edge">
<title>[1369765861, &quot;is_of_arity_1&quot;]&#45;&gt;[4237012356, :&quot;&#45;expr/5&#45;fun&#45;4&#45;&quot;]</title>
<path fill="none" stroke="black" d="M891.48,-376.39C951.02,-370.7 1023.91,-362.35 1088.67,-351 1135.94,-342.72 1188.49,-329.98 1228.82,-319.43"/>
<polygon fill="black" stroke="black" points="1229.75,-322.81 1238.53,-316.87 1227.97,-316.04 1229.75,-322.81"/>
<text text-anchor="middle" x="1261.67" y="-339.8" font-family="Times,serif" font-size="14.00">{1369765861, 4237012356}</text>
</g>
<!-- [2558710657, &quot;conjunction : 3944163576 AND 1716921316&quot;] -->
<g id="node6" class="node">
<title>[2558710657, &quot;conjunction : 3944163576 AND 1716921316&quot;]</title>
<ellipse fill="none" stroke="black" cx="297.67" cy="-105" rx="297.85" ry="18"/>
<text text-anchor="middle" x="297.67" y="-101.3" font-family="Times,serif" font-size="14.00">[2558710657, &quot;conjunction : 3944163576 AND 1716921316&quot;]</text>
</g>
<!-- 1716921316&#45;&gt;[2558710657, &quot;conjunction : 3944163576 AND 1716921316&quot;] -->
<g id="edge7" class="edge">
<title>1716921316&#45;&gt;[2558710657, &quot;conjunction : 3944163576 AND 1716921316&quot;]</title>
<path fill="none" stroke="black" d="M293.16,-227.98C292.14,-222.29 291.18,-215.9 290.67,-210 288.47,-184.05 290.95,-154.41 293.55,-133.43"/>
<polygon fill="black" stroke="black" points="297.05,-133.69 294.9,-123.31 290.11,-132.76 297.05,-133.69"/>
<text text-anchor="middle" x="394.67" y="-188.3" font-family="Times,serif" font-size="14.00">{1716921316, 2558710657}</text>
</g>
<!-- [3584601404, &quot;name&#45;3584601404&quot;, :&quot;&#45;expr/5&#45;fun&#45;4&#45;&quot;] -->
<g id="node7" class="node">
<title>[3584601404, &quot;name&#45;3584601404&quot;, :&quot;&#45;expr/5&#45;fun&#45;4&#45;&quot;]</title>
<ellipse fill="none" stroke="black" cx="297.67" cy="-18" rx="257.25" ry="18"/>
<text text-anchor="middle" x="297.67" y="-14.3" font-family="Times,serif" font-size="14.00">[3584601404, &quot;name&#45;3584601404&quot;, :&quot;&#45;expr/5&#45;fun&#45;4&#45;&quot;]</text>
</g>
<!-- [2558710657, &quot;conjunction : 3944163576 AND 1716921316&quot;]&#45;&gt;[3584601404, &quot;name&#45;3584601404&quot;, :&quot;&#45;expr/5&#45;fun&#45;4&#45;&quot;] -->
<g id="edge8" class="edge">
<title>[2558710657, &quot;conjunction : 3944163576 AND 1716921316&quot;]&#45;&gt;[3584601404, &quot;name&#45;3584601404&quot;, :&quot;&#45;expr/5&#45;fun&#45;4&#45;&quot;]</title>
<path fill="none" stroke="black" d="M297.67,-86.8C297.67,-75.16 297.67,-59.55 297.67,-46.24"/>
<polygon fill="black" stroke="black" points="301.17,-46.18 297.67,-36.18 294.17,-46.18 301.17,-46.18"/>
<text text-anchor="middle" x="401.67" y="-57.8" font-family="Times,serif" font-size="14.00">{2558710657, 3584601404}</text>
</g>
<!-- [3944163576, &quot;conjunction : 4116760673 AND 1290434574&quot;]&#45;&gt;[2558710657, &quot;conjunction : 3944163576 AND 1716921316&quot;] -->
<g id="edge9" class="edge">
<title>[3944163576, &quot;conjunction : 4116760673 AND 1290434574&quot;]&#45;&gt;[2558710657, &quot;conjunction : 3944163576 AND 1716921316&quot;]</title>
<path fill="none" stroke="black" d="M709.53,-174.91C622.33,-160.32 494.01,-138.85 403.84,-123.76"/>
<polygon fill="black" stroke="black" points="404.3,-120.29 393.86,-122.09 403.14,-127.2 404.3,-120.29"/>
<text text-anchor="middle" x="686.67" y="-144.8" font-family="Times,serif" font-size="14.00">{3944163576, 2558710657}</text>
</g>
<!-- 4116760673&#45;&gt;[3944163576, &quot;conjunction : 4116760673 AND 1290434574&quot;] -->
<g id="edge10" class="edge">
<title>4116760673&#45;&gt;[3944163576, &quot;conjunction : 4116760673 AND 1290434574&quot;]</title>
<path fill="none" stroke="black" d="M885.91,-281.88C883.56,-266.38 878.12,-243.66 865.67,-228 862.02,-223.4 857.59,-219.29 852.8,-215.64"/>
<polygon fill="black" stroke="black" points="854.72,-212.71 844.49,-209.94 850.75,-218.48 854.72,-212.71"/>
<text text-anchor="middle" x="986.67" y="-242.3" font-family="Times,serif" font-size="14.00">{4116760673, 3944163576}</text>
</g>
<!-- [4237012356, :&quot;&#45;expr/5&#45;fun&#45;4&#45;&quot;]&#45;&gt;[1036416829, &quot;name&#45;1036416829&quot;, :&quot;&#45;expr/5&#45;fun&#45;4&#45;&quot;] -->
<g id="edge11" class="edge">
<title>[4237012356, :&quot;&#45;expr/5&#45;fun&#45;4&#45;&quot;]&#45;&gt;[1036416829, &quot;name&#45;1036416829&quot;, :&quot;&#45;expr/5&#45;fun&#45;4&#45;&quot;]</title>
<path fill="none" stroke="black" d="M1309.01,-281.97C1322.56,-264.66 1343.7,-237.66 1359.14,-217.94"/>
<polygon fill="black" stroke="black" points="1361.96,-220.02 1365.37,-209.99 1356.45,-215.7 1361.96,-220.02"/>
<text text-anchor="middle" x="1452.67" y="-242.3" font-family="Times,serif" font-size="14.00">{4237012356, 1036416829}</text>
</g>
</g>
</svg>
