<?xml version="1.0" encoding="UTF-8" standalone="no"?>
<!DOCTYPE svg PUBLIC "-//W3C//DTD SVG 1.1//EN"
 "http://www.w3.org/Graphics/SVG/1.1/DTD/svg11.dtd">
<!-- Generated by graphviz version 2.43.0 (0)
 -->
<!-- Title: %3 Pages: 1 -->
<svg width="796pt" height="305pt"
 viewBox="0.00 0.00 795.69 305.00" xmlns="http://www.w3.org/2000/svg" xmlns:xlink="http://www.w3.org/1999/xlink">
<g id="graph0" class="graph" transform="scale(1 1) rotate(0) translate(4 301)">
<title>%3</title>
<polygon fill="white" stroke="transparent" points="-4,4 -4,-301 791.69,-301 791.69,4 -4,4"/>
<!-- 415084746 -->
<g id="node1" class="node">
<title>415084746</title>
<ellipse fill="none" stroke="black" cx="303.69" cy="-192" rx="63.89" ry="18"/>
<text text-anchor="middle" x="303.69" y="-188.3" font-family="Times,serif" font-size="14.00">415084746</text>
</g>
<!-- 820273099 -->
<g id="node3" class="node">
<title>820273099</title>
<ellipse fill="none" stroke="black" cx="63.69" cy="-105" rx="63.89" ry="18"/>
<text text-anchor="middle" x="63.69" y="-101.3" font-family="Times,serif" font-size="14.00">820273099</text>
</g>
<!-- 415084746&#45;&gt;820273099 -->
<g id="edge1" class="edge">
<title>415084746&#45;&gt;820273099</title>
<path fill="none" stroke="black" d="M241.53,-188.03C184.86,-184.12 106.47,-175.32 82.69,-156 75.65,-150.28 71.21,-141.63 68.42,-133.14"/>
<polygon fill="black" stroke="black" points="71.79,-132.18 65.84,-123.41 65.02,-133.97 71.79,-132.18"/>
<text text-anchor="middle" x="191.19" y="-144.8" font-family="Times,serif" font-size="14.00">{&quot;415084746&quot;, &quot;820273099&quot;}</text>
</g>
<!-- 1542900415 -->
<g id="node4" class="node">
<title>1542900415</title>
<ellipse fill="none" stroke="black" cx="303.69" cy="-105" rx="69.59" ry="18"/>
<text text-anchor="middle" x="303.69" y="-101.3" font-family="Times,serif" font-size="14.00">1542900415</text>
</g>
<!-- 415084746&#45;&gt;1542900415 -->
<g id="edge2" class="edge">
<title>415084746&#45;&gt;1542900415</title>
<path fill="none" stroke="black" d="M303.69,-173.8C303.69,-162.16 303.69,-146.55 303.69,-133.24"/>
<polygon fill="black" stroke="black" points="307.19,-133.18 303.69,-123.18 300.19,-133.18 307.19,-133.18"/>
<text text-anchor="middle" x="416.69" y="-144.8" font-family="Times,serif" font-size="14.00">{&quot;415084746&quot;, &quot;1542900415&quot;}</text>
</g>
<!-- 2119875691 -->
<g id="node5" class="node">
<title>2119875691</title>
<ellipse fill="none" stroke="black" cx="552.69" cy="-105" rx="69.59" ry="18"/>
<text text-anchor="middle" x="552.69" y="-101.3" font-family="Times,serif" font-size="14.00">2119875691</text>
</g>
<!-- 415084746&#45;&gt;2119875691 -->
<g id="edge3" class="edge">
<title>415084746&#45;&gt;2119875691</title>
<path fill="none" stroke="black" d="M365.94,-188.05C424.07,-184.13 505.55,-175.3 530.69,-156 538.24,-150.21 543.25,-141.29 546.55,-132.57"/>
<polygon fill="black" stroke="black" points="549.9,-133.59 549.6,-123 543.23,-131.46 549.9,-133.59"/>
<text text-anchor="middle" x="655.69" y="-144.8" font-family="Times,serif" font-size="14.00">{&quot;415084746&quot;, &quot;2119875691&quot;}</text>
</g>
<!-- root -->
<g id="node2" class="node">
<title>root</title>
<ellipse fill="none" stroke="black" cx="303.69" cy="-279" rx="29.8" ry="18"/>
<text text-anchor="middle" x="303.69" y="-275.3" font-family="Times,serif" font-size="14.00">root</text>
</g>
<!-- root&#45;&gt;415084746 -->
<g id="edge4" class="edge">
<title>root&#45;&gt;415084746</title>
<path fill="none" stroke="black" d="M303.69,-260.8C303.69,-249.16 303.69,-233.55 303.69,-220.24"/>
<polygon fill="black" stroke="black" points="307.19,-220.18 303.69,-210.18 300.19,-220.18 307.19,-220.18"/>
<text text-anchor="middle" x="452.69" y="-231.8" font-family="Times,serif" font-size="14.00">{%Dagger.Workflow.Root{}, 415084746}</text>
</g>
<!-- 2866525062 -->
<g id="node6" class="node">
<title>2866525062</title>
<ellipse fill="none" stroke="black" cx="552.69" cy="-18" rx="69.59" ry="18"/>
<text text-anchor="middle" x="552.69" y="-14.3" font-family="Times,serif" font-size="14.00">2866525062</text>
</g>
<!-- 2119875691&#45;&gt;2866525062 -->
<g id="edge5" class="edge">
<title>2119875691&#45;&gt;2866525062</title>
<path fill="none" stroke="black" d="M552.69,-86.8C552.69,-75.16 552.69,-59.55 552.69,-46.24"/>
<polygon fill="black" stroke="black" points="556.19,-46.18 552.69,-36.18 549.19,-46.18 556.19,-46.18"/>
<text text-anchor="middle" x="670.19" y="-57.8" font-family="Times,serif" font-size="14.00">{&quot;2119875691&quot;, &quot;2866525062&quot;}</text>
</g>
</g>
</svg>
