<?xml version="1.0" encoding="UTF-8" standalone="no"?>
<!DOCTYPE svg PUBLIC "-//W3C//DTD SVG 1.1//EN"
 "http://www.w3.org/Graphics/SVG/1.1/DTD/svg11.dtd">
<!-- Generated by graphviz version 2.43.0 (0)
 -->
<!-- Title: %3 Pages: 1 -->
<svg width="1111pt" height="500pt"
 viewBox="0.00 0.00 1111.35 500.00" xmlns="http://www.w3.org/2000/svg" xmlns:xlink="http://www.w3.org/1999/xlink">
<g id="graph0" class="graph" transform="scale(1 1) rotate(0) translate(4 496)">
<title>%3</title>
<polygon fill="white" stroke="transparent" points="-4,4 -4,-496 1107.35,-496 1107.35,4 -4,4"/>
<!-- [401940914, &quot;name&#45;401940914&quot;, :&quot;&#45;expr/5&#45;fun&#45;4&#45;&quot;] -->
<g id="node1" class="node">
<title>[401940914, &quot;name&#45;401940914&quot;, :&quot;&#45;expr/5&#45;fun&#45;4&#45;&quot;]</title>
<ellipse fill="none" stroke="black" cx="297.67" cy="-18" rx="245.86" ry="18"/>
<text text-anchor="middle" x="297.67" y="-14.3" font-family="Times,serif" font-size="14.00">[401940914, &quot;name&#45;401940914&quot;, :&quot;&#45;expr/5&#45;fun&#45;4&#45;&quot;]</text>
</g>
<!-- root -->
<g id="node2" class="node">
<title>root</title>
<ellipse fill="none" stroke="black" cx="574.67" cy="-474" rx="29.8" ry="18"/>
<text text-anchor="middle" x="574.67" y="-470.3" font-family="Times,serif" font-size="14.00">root</text>
</g>
<!-- [1369765861, &quot;is_of_arity_1&quot;] -->
<g id="node4" class="node">
<title>[1369765861, &quot;is_of_arity_1&quot;]</title>
<ellipse fill="none" stroke="black" cx="574.67" cy="-387" rx="148.37" ry="18"/>
<text text-anchor="middle" x="574.67" y="-383.3" font-family="Times,serif" font-size="14.00">[1369765861, &quot;is_of_arity_1&quot;]</text>
</g>
<!-- root&#45;&gt;[1369765861, &quot;is_of_arity_1&quot;] -->
<g id="edge1" class="edge">
<title>root&#45;&gt;[1369765861, &quot;is_of_arity_1&quot;]</title>
<path fill="none" stroke="black" d="M574.67,-455.8C574.67,-444.16 574.67,-428.55 574.67,-415.24"/>
<polygon fill="black" stroke="black" points="578.17,-415.18 574.67,-405.18 571.17,-415.18 578.17,-415.18"/>
<text text-anchor="middle" x="650.17" y="-426.8" font-family="Times,serif" font-size="14.00">{:root, 1369765861}</text>
</g>
<!-- 1242063663 -->
<g id="node3" class="node">
<title>1242063663</title>
<ellipse fill="none" stroke="black" cx="312.67" cy="-246" rx="69.59" ry="18"/>
<text text-anchor="middle" x="312.67" y="-242.3" font-family="Times,serif" font-size="14.00">1242063663</text>
</g>
<!-- [3758822759, &quot;conjunction : 1476314282 AND 1242063663&quot;] -->
<g id="node7" class="node">
<title>[3758822759, &quot;conjunction : 1476314282 AND 1242063663&quot;]</title>
<ellipse fill="none" stroke="black" cx="297.67" cy="-105" rx="297.85" ry="18"/>
<text text-anchor="middle" x="297.67" y="-101.3" font-family="Times,serif" font-size="14.00">[3758822759, &quot;conjunction : 1476314282 AND 1242063663&quot;]</text>
</g>
<!-- 1242063663&#45;&gt;[3758822759, &quot;conjunction : 1476314282 AND 1242063663&quot;] -->
<g id="edge2" class="edge">
<title>1242063663&#45;&gt;[3758822759, &quot;conjunction : 1476314282 AND 1242063663&quot;]</title>
<path fill="none" stroke="black" d="M299.41,-228.12C295.86,-222.65 292.5,-216.34 290.67,-210 283.39,-184.71 286.64,-154.59 290.81,-133.29"/>
<polygon fill="black" stroke="black" points="294.27,-133.83 292.95,-123.32 287.43,-132.36 294.27,-133.83"/>
<text text-anchor="middle" x="394.67" y="-188.3" font-family="Times,serif" font-size="14.00">{1242063663, 3758822759}</text>
</g>
<!-- [1369765861, &quot;is_of_arity_1&quot;]&#45;&gt;1242063663 -->
<g id="edge3" class="edge">
<title>[1369765861, &quot;is_of_arity_1&quot;]&#45;&gt;1242063663</title>
<path fill="none" stroke="black" d="M456.77,-376.09C416.83,-370.74 378.35,-362.74 362.67,-351 337.82,-332.37 324.73,-298.16 318.27,-274.07"/>
<polygon fill="black" stroke="black" points="321.61,-273 315.82,-264.12 314.81,-274.67 321.61,-273"/>
<text text-anchor="middle" x="466.67" y="-339.8" font-family="Times,serif" font-size="14.00">{1369765861, 1242063663}</text>
</g>
<!-- 3475404928 -->
<g id="node6" class="node">
<title>3475404928</title>
<ellipse fill="none" stroke="black" cx="574.67" cy="-300" rx="69.59" ry="18"/>
<text text-anchor="middle" x="574.67" y="-296.3" font-family="Times,serif" font-size="14.00">3475404928</text>
</g>
<!-- [1369765861, &quot;is_of_arity_1&quot;]&#45;&gt;3475404928 -->
<g id="edge4" class="edge">
<title>[1369765861, &quot;is_of_arity_1&quot;]&#45;&gt;3475404928</title>
<path fill="none" stroke="black" d="M574.67,-368.8C574.67,-357.16 574.67,-341.55 574.67,-328.24"/>
<polygon fill="black" stroke="black" points="578.17,-328.18 574.67,-318.18 571.17,-328.18 578.17,-328.18"/>
<text text-anchor="middle" x="678.67" y="-339.8" font-family="Times,serif" font-size="14.00">{1369765861, 3475404928}</text>
</g>
<!-- 4167434064 -->
<g id="node8" class="node">
<title>4167434064</title>
<ellipse fill="none" stroke="black" cx="805.67" cy="-300" rx="69.59" ry="18"/>
<text text-anchor="middle" x="805.67" y="-296.3" font-family="Times,serif" font-size="14.00">4167434064</text>
</g>
<!-- [1369765861, &quot;is_of_arity_1&quot;]&#45;&gt;4167434064 -->
<g id="edge5" class="edge">
<title>[1369765861, &quot;is_of_arity_1&quot;]&#45;&gt;4167434064</title>
<path fill="none" stroke="black" d="M692.53,-376.02C731.43,-370.69 768.61,-362.72 783.67,-351 790.99,-345.31 795.93,-336.67 799.24,-328.17"/>
<polygon fill="black" stroke="black" points="802.64,-329.03 802.41,-318.44 795.98,-326.86 802.64,-329.03"/>
<text text-anchor="middle" x="899.67" y="-339.8" font-family="Times,serif" font-size="14.00">{1369765861, 4167434064}</text>
</g>
<!-- [1476314282, &quot;conjunction : 4167434064 AND 3475404928&quot;] -->
<g id="node5" class="node">
<title>[1476314282, &quot;conjunction : 4167434064 AND 3475404928&quot;]</title>
<ellipse fill="none" stroke="black" cx="805.67" cy="-192" rx="297.85" ry="18"/>
<text text-anchor="middle" x="805.67" y="-188.3" font-family="Times,serif" font-size="14.00">[1476314282, &quot;conjunction : 4167434064 AND 3475404928&quot;]</text>
</g>
<!-- [1476314282, &quot;conjunction : 4167434064 AND 3475404928&quot;]&#45;&gt;[3758822759, &quot;conjunction : 1476314282 AND 1242063663&quot;] -->
<g id="edge6" class="edge">
<title>[1476314282, &quot;conjunction : 4167434064 AND 3475404928&quot;]&#45;&gt;[3758822759, &quot;conjunction : 1476314282 AND 1242063663&quot;]</title>
<path fill="none" stroke="black" d="M709.53,-174.91C622.33,-160.32 494.01,-138.85 403.84,-123.76"/>
<polygon fill="black" stroke="black" points="404.3,-120.29 393.86,-122.09 403.14,-127.2 404.3,-120.29"/>
<text text-anchor="middle" x="686.67" y="-144.8" font-family="Times,serif" font-size="14.00">{1476314282, 3758822759}</text>
</g>
<!-- 3475404928&#45;&gt;[1476314282, &quot;conjunction : 4167434064 AND 3475404928&quot;] -->
<g id="edge7" class="edge">
<title>3475404928&#45;&gt;[1476314282, &quot;conjunction : 4167434064 AND 3475404928&quot;]</title>
<path fill="none" stroke="black" d="M574.33,-281.71C575,-265.41 578.74,-241.54 593.67,-228 602.2,-220.27 618.94,-214.23 639.44,-209.52"/>
<polygon fill="black" stroke="black" points="640.4,-212.89 649.44,-207.38 638.93,-206.05 640.4,-212.89"/>
<text text-anchor="middle" x="697.67" y="-242.3" font-family="Times,serif" font-size="14.00">{3475404928, 1476314282}</text>
</g>
<!-- [3758822759, &quot;conjunction : 1476314282 AND 1242063663&quot;]&#45;&gt;[401940914, &quot;name&#45;401940914&quot;, :&quot;&#45;expr/5&#45;fun&#45;4&#45;&quot;] -->
<g id="edge8" class="edge">
<title>[3758822759, &quot;conjunction : 1476314282 AND 1242063663&quot;]&#45;&gt;[401940914, &quot;name&#45;401940914&quot;, :&quot;&#45;expr/5&#45;fun&#45;4&#45;&quot;]</title>
<path fill="none" stroke="black" d="M297.67,-86.8C297.67,-75.16 297.67,-59.55 297.67,-46.24"/>
<polygon fill="black" stroke="black" points="301.17,-46.18 297.67,-36.18 294.17,-46.18 301.17,-46.18"/>
<text text-anchor="middle" x="397.17" y="-57.8" font-family="Times,serif" font-size="14.00">{3758822759, 401940914}</text>
</g>
<!-- 4167434064&#45;&gt;[1476314282, &quot;conjunction : 4167434064 AND 3475404928&quot;] -->
<g id="edge9" class="edge">
<title>4167434064&#45;&gt;[1476314282, &quot;conjunction : 4167434064 AND 3475404928&quot;]</title>
<path fill="none" stroke="black" d="M805.67,-281.97C805.67,-265.38 805.67,-239.88 805.67,-220.43"/>
<polygon fill="black" stroke="black" points="809.17,-220.34 805.67,-210.34 802.17,-220.34 809.17,-220.34"/>
<text text-anchor="middle" x="909.67" y="-242.3" font-family="Times,serif" font-size="14.00">{4167434064, 1476314282}</text>
</g>
</g>
</svg>
